<?xml version="1.0" standalone="no"?>
<!DOCTYPE svg PUBLIC "-//W3C//DTD SVG 20010904//EN"
 "http://www.w3.org/TR/2001/REC-SVG-20010904/DTD/svg10.dtd">
<svg version="1.0" xmlns="http://www.w3.org/2000/svg"
 width="128.000000pt" height="128.000000pt" viewBox="0 0 128.000000 128.000000"
 preserveAspectRatio="xMidYMid meet">

<g transform="translate(0.000000,128.000000) scale(0.100000,-0.100000)"
fill="#000000" stroke="none">
<path d="M1 998 c1 -267 1 -279 14 -218 38 176 172 347 336 428 47 24 115 49
150 57 60 13 48 13 -218 14 l-283 1 1 -282z"/>
<path d="M780 1265 c84 -18 212 -83 278 -141 98 -86 180 -223 207 -346 13 -59
13 -44 14 220 l1 282 -282 -1 c-267 -1 -279 -1 -218 -14z"/>
<path d="M525 1188 c-90 -17 -204 -80 -279 -154 -174 -175 -213 -424 -101
-656 18 -37 35 -42 35 -10 0 64 126 235 204 277 l34 19 -24 47 c-34 64 -41
140 -20 214 32 110 148 195 266 195 118 0 234 -85 266 -195 21 -74 14 -145
-20 -212 l-25 -50 23 -11 c13 -5 50 -35 83 -66 59 -55 108 -132 133 -210 l13
-40 20 39 c115 225 76 484 -99 659 -134 134 -319 190 -509 154z"/>
<path d="M572 1029 c-48 -14 -109 -80 -123 -131 -23 -89 12 -182 88 -229 57
-36 154 -34 210 3 62 41 88 90 88 168 0 77 -26 127 -85 166 -43 29 -125 39
-178 23z"/>
<path d="M432 580 c-93 -54 -172 -173 -187 -282 -7 -48 -6 -51 26 -79 46 -40
142 -93 209 -115 76 -26 244 -26 320 0 67 22 163 75 209 115 32 28 33 31 26
79 -15 110 -94 228 -188 282 l-50 28 -41 -21 c-57 -30 -173 -31 -233 -1 l-42
21 -49 -27z"/>
<path d="M1 283 l-1 -283 283 1 c258 1 277 2 222 14 -126 27 -263 109 -349
207 -58 66 -123 194 -141 278 -13 61 -13 49 -14 -217z"/>
<path d="M1263 501 c-23 -122 -110 -264 -213 -350 -74 -61 -185 -117 -270
-135 -62 -14 -50 -14 218 -15 l282 -1 0 280 c0 154 -1 280 -3 280 -1 0 -8 -27
-14 -59z"/>
</g>
</svg>
